<svg xmlns="http://www.w3.org/2000/svg" xmlns:xlink="http://www.w3.org/1999/xlink" width="610pt" height="377pt" viewBox="0.00 0.00 610.00 377.00">
<g id="graph0" class="graph" transform="scale(1 1) rotate(0) translate(4 372.8)">
<title>Algo4Co2Thermobaric</title>
<polygon fill="white" stroke="none" points="-4,4 -4,-372.8 606.33,-372.8 606.33,4 -4,4"/>
<!-- co2_raw -->
<g id="node1" class="node">
<title>co2_raw</title>
<polygon fill="lightblue" stroke="black" points="174.72,-368.8 0,-368.8 0,-332.8 174.72,-332.8 174.72,-368.8"/>
<text xml:space="preserve" text-anchor="middle" x="87.36" y="-346.6" font-family="Helvetica,sans-Serif" font-size="14.00">MH-Z19B Measured CO2</text>
</g>
<!-- units_conv -->
<g id="node4" class="node">
<title>units_conv</title>
<polygon fill="lightsteelblue" stroke="black" points="415.39,-296.8 201.33,-296.8 201.33,-238.4 415.39,-238.4 415.39,-296.8"/>
<text xml:space="preserve" text-anchor="middle" x="308.36" y="-280.2" font-family="Helvetica,sans-Serif" font-size="14.00">Convert to Absolute Units</text>
<text xml:space="preserve" text-anchor="middle" x="308.36" y="-263.4" font-family="Helvetica,sans-Serif" font-size="14.00">- T_amb_K = T_amb + 273.15f</text>
<text xml:space="preserve" text-anchor="middle" x="308.36" y="-246.6" font-family="Helvetica,sans-Serif" font-size="14.00">- P_hPa = Pressure_Pa / 100.0f</text>
</g>
<!-- co2_raw&#45;&gt;units_conv -->
<g id="edge1" class="edge">
<title>co2_raw-&gt;units_conv</title>
<path fill="none" stroke="black" d="M134.77,-332.38C159.73,-323.21 191.15,-311.67 220.37,-300.93"/>
<polygon fill="black" stroke="black" points="229.46,-297.59 221.62,-305.26 225.91,-298.89 220.07,-301.04 220.07,-301.04 220.07,-301.04 225.91,-298.89 218.52,-296.81 229.46,-297.59"/>
</g>
<!-- t_ambient -->
<g id="node2" class="node">
<title>t_ambient</title>
<polygon fill="lightblue" stroke="black" points="424.5,-368.8 192.22,-368.8 192.22,-332.8 424.5,-332.8 424.5,-368.8"/>
<text xml:space="preserve" text-anchor="middle" x="308.36" y="-346.6" font-family="Helvetica,sans-Serif" font-size="14.00">SHTC3 Ambient Temperature (°C)</text>
</g>
<!-- t_ambient&#45;&gt;units_conv -->
<g id="edge2" class="edge">
<title>t_ambient-&gt;units_conv</title>
<path fill="none" stroke="black" d="M308.36,-332.58C308.36,-325.46 308.36,-316.88 308.36,-308.35"/>
<polygon fill="black" stroke="black" points="308.36,-298.52 312.86,-308.52 308.36,-302.3 308.36,-308.52 308.36,-308.52 308.36,-308.52 308.36,-302.3 303.86,-308.52 308.36,-298.52"/>
</g>
<!-- p_measured -->
<g id="node3" class="node">
<title>p_measured</title>
<polygon fill="lightblue" stroke="black" points="602.33,-368.8 442.39,-368.8 442.39,-332.8 602.33,-332.8 602.33,-368.8"/>
<text xml:space="preserve" text-anchor="middle" x="522.36" y="-346.6" font-family="Helvetica,sans-Serif" font-size="14.00">BME680 Pressure (Pa)</text>
</g>
<!-- p_measured&#45;&gt;units_conv -->
<g id="edge3" class="edge">
<title>p_measured-&gt;units_conv</title>
<path fill="none" stroke="black" d="M476.45,-332.38C452.39,-323.25 422.12,-311.77 393.93,-301.07"/>
<polygon fill="black" stroke="black" points="384.79,-297.6 395.74,-296.94 388.33,-298.94 394.14,-301.15 394.14,-301.15 394.14,-301.15 388.33,-298.94 392.54,-305.36 384.79,-297.6"/>
</g>
<!-- gas_density -->
<g id="node5" class="node">
<title>gas_density</title>
<polygon fill="aquamarine" stroke="black" points="467.14,-202.4 149.57,-202.4 149.57,-144 467.14,-144 467.14,-202.4"/>
<text xml:space="preserve" text-anchor="middle" x="308.36" y="-185.8" font-family="Helvetica,sans-Serif" font-size="14.00">Ideal Gas Density Correction</text>
<text xml:space="preserve" text-anchor="middle" x="308.36" y="-169" font-family="Helvetica,sans-Serif" font-size="14.00">Ratio = (T_amb_K * 1013.25) / (P_hPa * 298.15)</text>
<text xml:space="preserve" text-anchor="middle" x="308.36" y="-152.2" font-family="Helvetica,sans-Serif" font-size="14.00">CO2_comp = CO2_raw * Ratio</text>
</g>
<!-- units_conv&#45;&gt;gas_density -->
<g id="edge4" class="edge">
<title>units_conv-&gt;gas_density</title>
<path fill="none" stroke="black" d="M308.36,-238.12C308.36,-230.48 308.36,-222.08 308.36,-213.95"/>
<polygon fill="black" stroke="black" points="308.36,-203.96 312.86,-213.96 308.36,-207.74 308.36,-213.96 308.36,-213.96 308.36,-213.96 308.36,-207.74 303.86,-213.96 308.36,-203.96"/>
</g>
<!-- clamp_zero -->
<g id="node6" class="node">
<title>clamp_zero</title>
<polygon fill="lightyellow" stroke="black" points="410.91,-108 205.81,-108 205.81,-72 410.91,-72 410.91,-108"/>
<text xml:space="preserve" text-anchor="middle" x="308.36" y="-85.8" font-family="Helvetica,sans-Serif" font-size="14.00">Clamp Negative Values to 0.0f</text>
</g>
<!-- gas_density&#45;&gt;clamp_zero -->
<g id="edge5" class="edge">
<title>gas_density-&gt;clamp_zero</title>
<path fill="none" stroke="black" d="M308.36,-143.8C308.36,-135.81 308.36,-127.13 308.36,-119.15"/>
<polygon fill="black" stroke="black" points="308.36,-109.36 312.86,-119.36 308.36,-113.14 308.36,-119.36 308.36,-119.36 308.36,-119.36 308.36,-113.14 303.86,-119.36 308.36,-109.36"/>
</g>
<!-- co2_comp_out -->
<g id="node7" class="node">
<title>co2_comp_out</title>
<polygon fill="plum" stroke="black" points="368.72,-36 241.99,-36 241.99,0 374.72,0 374.72,-30 368.72,-36"/>
<polyline fill="none" stroke="black" points="368.72,-36 368.72,-30"/>
<polyline fill="none" stroke="black" points="374.72,-30 368.72,-30"/>
<text xml:space="preserve" text-anchor="middle" x="308.36" y="-13.8" font-family="Helvetica,sans-Serif" font-size="14.00">CO2 compensated</text>
</g>
<!-- clamp_zero&#45;&gt;co2_comp_out -->
<g id="edge6" class="edge">
<title>clamp_zero-&gt;co2_comp_out</title>
<path fill="none" stroke="black" d="M308.36,-71.7C308.36,-64.32 308.36,-55.52 308.36,-47.25"/>
<polygon fill="black" stroke="black" points="308.36,-37.32 312.86,-47.32 308.36,-41.1 308.36,-47.32 308.36,-47.32 308.36,-47.32 308.36,-41.1 303.86,-47.32 308.36,-37.32"/>
</g>
</g>
</svg>